<svg xmlns="http://www.w3.org/2000/svg" viewBox="0 0 40 40" fill="none">
  <rect width="40" height="40" rx="8" fill="#157878"/>
  <path d="M8 14c2-2 4-2 6 0s4 2 6 0 4-2 6 0 4 2 6 0" stroke="white" stroke-width="2.5" stroke-linecap="round" fill="none"/>
  <path d="M8 20c2-2 4-2 6 0s4 2 6 0 4-2 6 0 4 2 6 0" stroke="white" stroke-width="2.5" stroke-linecap="round" fill="none"/>
  <path d="M8 26c2-2 4-2 6 0s4 2 6 0 4-2 6 0 4 2 6 0" stroke="white" stroke-width="2.5" stroke-linecap="round" fill="none"/>
</svg>
